<?xml version="1.0" encoding="UTF-8"?>
<svg width="1200px" height="1200px" viewBox="0 0 1200 1200" version="1.1" xmlns="http://www.w3.org/2000/svg" xmlns:xlink="http://www.w3.org/1999/xlink">
    <title>Graphic</title>
    <g id="Graphic" stroke="none" fill="none" fill-rule="evenodd" stroke-width="1">
        <g id="Group" transform="translate(600.2428, 599.9132) scale(-1, 1) translate(-600.2428, -599.9132)translate(242.2257, 199.9132)">
            <path d="M549.986805,617.584989 C549.986805,617.584989 540.151731,747.573554 520.980237,782.50751 C519.791623,784.674614 498.892091,788.149506 501.059195,779.292922 C503.226298,770.436337 516.536264,778.107444 515.325697,758.208355 C514.118266,738.309266 519.750853,651.47146 506.302895,617.258826 L549.986805,617.584989 Z" id="Path" fill="#E26B47"></path>
            <path d="M608.843575,513.937236 C611.866857,510.685013 618.449707,509.941737 622.48284,508.270151 C628.084065,505.949374 633.487711,503.114264 638.480516,499.667597 C651.17579,490.905099 661.18649,477.610814 663.087018,461.998888 C664.871507,447.337227 669.058313,431.781753 678.780484,420.331544 C678.833799,420.268821 678.899659,420.22805 678.962383,420.181007 C678.990608,420.149646 679.009425,420.112011 679.043923,420.08065 C684.613787,415.144296 694.34223,414.275573 701.138341,416.715524 C710.885602,420.212369 714.702338,429.555062 715.715326,439.18942 C717.390048,455.124372 712.381562,471.002873 702.671936,483.647968 C686.150517,505.162192 659.51804,516.847615 634.218442,524.365048 C627.384696,526.39416 618.057684,530.991806 611.374476,526.582331 C607.156308,523.800535 605.055065,518.011139 608.843575,513.937236 Z" id="Path" fill="#000000"></path>
            <g transform="translate(150.1591, 0)" fill="#000000" id="Path">
                <path d="M30.98109,0.0922630152 C36.4537316,2.50712489 41.4089027,6.62493481 45.7807435,10.611025 C57.8268272,21.5908061 66.827676,35.3837444 73.8245031,50.0140439 C74.4391952,51.2967433 69.4683432,53.7241499 68.8536511,52.4383144 C61.806645,37.7013846 52.7023022,23.6418706 40.4241408,12.7091323 C36.2655605,9.00529866 31.5675565,5.17915387 26.4179419,2.90855647 C25.3767288,2.4444012 29.5070834,-0.560063309 30.98109,0.0922630152 L30.98109,0.0922630152 Z"></path>
                <path d="M19.4493405,10.0308309 C37.7395671,18.3950343 57.3344463,33.1037385 63.7510793,52.839746 C64.6605727,55.6372223 59.9312069,58.1963487 58.8931299,55.0005769 C52.8998818,36.5598135 34.0357335,22.71356 16.9748912,14.9107336 C14.0739207,13.5841277 16.7584944,8.80144668 19.4493405,10.0308309 L19.4493405,10.0308309 Z"></path>
                <path d="M16.13753,24.159341 C29.720344,29.5567141 51.780264,40.5898103 52.7493449,57.2617658 C52.8340219,58.7012743 47.8161271,60.0372888 47.79731,59.7205342 C46.8282291,43.0736682 25.0819274,32.2318792 11.5179306,26.8407785 C11.0945457,26.6745607 14.8140602,23.6355982 16.13753,24.159341 L16.13753,24.159341 Z"></path>
                <path d="M11.3454404,34.2170839 C21.8892919,37.14628 44.69876,44.2936439 43.4191968,58.4441072 C43.2717961,60.0592421 39.7059546,64.0202428 39.9725303,61.0565487 C40.7126698,52.8648354 29.9900558,47.6462248 23.8619518,44.7609353 C19.0228195,42.4809294 13.942201,40.5521761 8.78631407,39.1189399 C7.24958379,38.6924188 9.44177658,33.6870687 11.3454404,34.2170839 L11.3454404,34.2170839 Z"></path>
                <path d="M4.09771862,44.8173866 C14.0394227,46.0467709 33.4053605,49.725515 35.1083085,61.9597698 C35.4376079,64.3244527 30.1844992,65.9395876 29.8834255,63.7724843 C28.3278782,52.5951236 10.3293167,49.5153907 1.19674818,48.3863643 C-1.99902357,47.9912051 1.98393043,44.5570833 4.09771862,44.8173866 L4.09771862,44.8173866 Z"></path>
            </g>
            <path d="M569.810626,495.283212 C569.810626,495.283212 655.798526,490.428399 643.407462,602.79788 C643.372964,603.114635 643.319649,603.434526 643.247516,603.745008 L600.297473,793.625284 C599.1904,798.524003 593.949836,801.302663 589.305147,799.392726 C589.229879,799.361365 589.151474,799.330003 589.07307,799.295505 C581.31415,796.018192 587.944043,794.876621 592.293931,780.478399 C596.643818,766.080177 599.29703,637.785152 584.854902,624.591225 C570.409637,611.394161 534.233752,672.40549 437.974848,662.949894 C374.272674,656.693207 342.013883,643.006899 327.477669,634.467069 C322.488,631.534737 316.118409,634.520384 315.24655,640.24392 L292.575074,774.287571 C292.230094,776.558169 291.527589,785.352029 289.33226,788.679521 C286.892308,792.383355 279.343513,799.320594 272.760662,792.082281 C262.749962,781.074274 282.649051,779.866843 281.491799,769.918867 C280.334547,759.97089 294.00831,623.879311 282.890537,612.880713 C271.7759,601.878978 247.351297,583.206137 244.10221,596.49415 C240.853123,609.782163 237.265329,771.254881 237.268465,772.361954 C237.274737,773.469027 222.870243,793.920085 216.337571,787.951926 C201.892306,774.754863 221.822757,779.076525 221.769442,769.125412 C221.719263,759.1743 207.220683,521.489167 207.220683,521.489167 C207.220683,521.489167 191.696571,299.290513 189.375795,278.29376 C187.428225,260.652723 172.710112,188.448353 168.052878,165.805103 C167.250015,161.900553 163.746897,159.15012 159.760807,159.306929 C129.656575,160.48927 10.7167868,162.446249 2.77596825,120.013676 C2.77596825,120.013676 -1.70877523,107.873507 10.4439387,105.596637 C22.5966527,103.322904 112.191164,107.283905 129.838473,98.3457795 C147.485782,89.4076543 206.932155,37.1243267 223.560203,44.7797524 C240.188252,52.4351782 275.122209,71.6066725 265.478442,131.372936 C256.076162,189.643239 267.535779,420.212369 268.115973,431.706485 C268.128518,431.979333 268.131654,432.249044 268.115973,432.521893 C267.839989,438.110573 265.933189,505.149647 333.75631,504.798395 C404.533716,504.431461 569.810626,495.283212 569.810626,495.283212 Z" id="Path" fill="#E26B47"></path>
            <path d="M205.433058,123.817868 C209.560277,111.464438 217.011851,99.6974749 230.303,96.2037656 C233.294919,95.4165834 236.330746,95.102965 239.416751,95.1061011 C239.548471,95.1061011 239.648829,95.1155097 239.742914,95.1249182 C239.815046,95.1155097 239.887179,95.102965 239.949902,95.0998288 C247.937764,94.7423038 254.116047,103.141005 257.531351,109.225203 C264.101657,120.926306 266.999492,134.656521 269.019194,147.784588 C271.509324,163.979844 272.409409,180.394632 272.90179,196.756105 C273.585478,219.553028 274.077859,241.280513 286.776269,261.101197 C295.381959,274.536611 307.854564,284.688439 316.767599,297.803962 C323.447672,307.635899 328.879543,320.513072 325.006355,332.461934 C317.291342,356.265572 284.019563,352.276346 266.35971,344.962764 C257.619164,341.343608 250.170727,336.918452 243.866996,329.862037 C238.350448,323.690027 233.881386,316.608523 229.992517,309.326303 C219.963,290.543695 213.392694,269.891922 208.500247,249.233876 C203.156189,226.681575 199.847514,203.527127 199.163826,180.347589 C198.611858,161.546165 199.420993,141.813293 205.433058,123.817868 Z" id="Path" fill="#000000"></path>
            <path d="M193.888764,86.1805208 C198.88157,85.9390346 199.496262,95.2817275 199.50567,98.4586821 C199.518215,101.89594 199.044651,110.705482 194.076935,110.946968 C189.052768,111.19159 188.525889,101.811263 188.460029,98.6688064 C188.497664,95.2315485 188.889687,86.4220069 193.888764,86.1805208 Z" id="Path" fill="#000000"></path>
            <path d="M1.06047546,111.006555 C5.70202816,103.316632 20.4922731,103.830966 27.8685785,103.771378 C39.434826,101.676407 53.5382466,100.171039 64.6497474,104.646374 C70.0283034,106.813477 72.4180758,110.062564 73.6788218,115.525797 C75.2280969,122.22155 76.7491462,128.785584 76.6801502,135.722823 C76.6080179,142.848234 74.8799804,151.033675 67.8800172,154.455252 C60.8016493,157.917599 51.2801939,156.133111 44.0167912,154.323532 C28.1539712,150.37194 4.09630182,139.774773 0.517915587,121.63822 C-0.00896336708,118.95051 -0.517025216,113.625269 1.06047546,111.006555 Z" id="Path" fill="#000000"></path>
            <path d="M168.636209,369.550449 C177.473976,367.662466 186.308607,365.774483 195.146374,363.883364 C195.438039,363.82064 196.833641,364.033901 197.580053,364.394562 C219.843825,364.278523 242.107597,364.165621 264.371369,364.049582 C265.271454,364.043309 268.727529,365.156655 267.858806,366.702794 C262.862865,375.606421 254.871867,383.936126 245.526038,388.179383 C225.699081,397.177096 207.390037,383.236757 195.284366,368.270886 C192.151318,372.012354 189.01827,375.756958 185.882086,379.498425 C185.543378,379.902993 184.07878,379.542332 183.301006,379.078177 C183.238283,379.053087 183.184967,379.027998 183.144197,379.006044 C178.336427,376.083121 173.528656,373.157061 168.724022,370.234137 C168.441765,370.058511 168.128147,369.657079 168.636209,369.550449 Z" id="Path" fill="#EEC130"></path>
        </g>
    </g>
</svg>