<?xml version="1.0" encoding="UTF-8"?>
<svg width="1200px" height="1200px" viewBox="0 0 1200 1200" version="1.1" xmlns="http://www.w3.org/2000/svg" xmlns:xlink="http://www.w3.org/1999/xlink">
    <title>logo</title>
    <g id="logo" stroke="none" fill="none" fill-rule="evenodd" stroke-width="1">
        <g id="Group" transform="translate(600.2257, 599.9132) scale(-1, 1) translate(-600.2257, -599.9132)translate(97.2257, 37.9132)">
            <path d="M772.71004,867.70691 C772.71004,867.70691 758.892144,1050.34084 731.956941,1099.42305 C730.286985,1102.46783 700.923957,1107.35006 703.968653,1094.90655 C707.013349,1082.46305 725.713332,1093.24096 724.012533,1065.28274 C722.316139,1037.32452 730.229705,915.317401 711.335847,867.24865 L772.71004,867.70691 Z" id="Path" fill="#E26B47"></path>
            <path d="M855.401509,722.081816 C859.649102,717.512443 868.897751,716.46814 874.564146,714.119562 C882.433649,710.858871 890.02556,706.875541 897.040257,702.032974 C914.876623,689.721663 928.941266,671.043193 931.611434,649.108438 C934.118571,628.508804 940.00087,606.653363 953.660142,590.56582 C953.735048,590.477693 953.827578,590.420411 953.915703,590.354316 C953.955359,590.310252 953.981796,590.257376 954.030264,590.213313 C961.855705,583.277735 975.52379,582.057179 985.072061,585.485311 C998.766583,590.398379 1004.12895,603.524862 1005.55216,617.061135 C1007.90508,639.449743 1000.86835,661.759037 987.226701,679.525395 C964.014751,709.75288 926.597159,726.170899 891.052209,736.732893 C881.451063,739.583794 868.346974,746.043487 858.957326,739.848175 C853.030965,735.939752 850.078799,727.80565 855.401509,722.081816 Z" id="Path" fill="#000000"></path>
            <g transform="translate(210.9677, 0)" fill="#000000" id="Path">
                <path d="M43.5272248,0.129629536 C51.216073,3.52251047 58.1778954,9.30803341 64.3201615,14.9084901 C81.24444,30.3350825 93.890282,49.7141609 103.720551,70.2697317 C104.58417,72.0719243 97.6003165,75.4824306 96.736698,73.6758317 C86.835929,52.9704453 74.0446818,33.2168281 56.7943434,17.8563308 C50.9517,12.6524446 44.3511873,7.27671119 37.1161795,4.08652185 C35.6533155,3.43438369 41.456303,-0.78688895 43.5272248,0.129629536 L43.5272248,0.129629536 Z"></path>
                <path d="M27.3255659,14.0933174 C53.0226219,25.8450232 80.5526639,46.5107525 89.5677834,74.2398431 C90.8455862,78.1702974 84.2010114,81.7658699 82.7425537,77.2758106 C74.3222735,51.366538 47.8188799,31.9125518 23.8490609,20.9495807 C19.7733105,19.0856994 23.545032,12.3660326 27.3255659,14.0933174 L27.3255659,14.0933174 Z"></path>
                <path d="M22.6726011,33.9438741 C41.7559257,41.5271833 72.7492541,57.0286834 74.1107751,80.4527809 C74.2297429,82.4752904 67.1797962,84.3523908 67.1533589,83.9073506 C65.7918379,60.5185038 35.2391312,45.2857903 16.1822438,37.7112938 C15.5874046,37.4777578 20.8131776,33.2080155 22.6726011,33.9438741 L22.6726011,33.9438741 Z"></path>
                <path d="M15.9399019,48.0750028 C30.7536025,52.1905233 62.8000168,62.2325696 61.0022803,82.1139706 C60.7951882,84.3832352 55.7853197,89.9484412 56.1598482,85.7844509 C57.1997153,74.2750938 42.1348603,66.9429459 33.5251128,62.8891141 C26.7263204,59.6857058 19.5882494,56.9758074 12.3444291,54.9621105 C10.1853829,54.3628484 13.2653284,47.3303316 15.9399019,48.0750028 L15.9399019,48.0750028 Z"></path>
                <path d="M5.75713505,62.9684282 C19.7248421,64.6957131 46.9332303,69.8643486 49.325806,87.0534765 C49.7884588,90.375856 42.4080458,92.6451206 41.985049,89.6003404 C39.7995655,73.8961486 14.5122877,69.5691239 1.68138458,67.9828419 C-2.80855026,67.4276432 2.78734498,62.6027021 5.75713505,62.9684282 L5.75713505,62.9684282 Z"></path>
            </g>
            <path d="M800.561736,695.872913 C800.561736,695.872913 921.371386,689.0519 903.962424,846.931022 C903.913955,847.376062 903.83905,847.825509 903.737707,848.261736 L843.394569,1115.04352 C841.839174,1121.92622 834.476386,1125.83024 827.950779,1123.14678 C827.84503,1123.10272 827.734874,1123.05865 827.624719,1123.01018 C816.723739,1118.40556 826.038481,1116.80165 832.149904,1096.57215 C838.261326,1076.34265 841.988986,896.088138 821.698358,877.550671 C801.403323,859.008797 750.577613,944.729713 615.337603,931.444601 C525.838529,922.653955 480.516184,903.424693 460.09337,891.426232 C453.083079,887.306305 444.134053,891.50114 442.909124,899.542708 L411.056584,1087.87404 C410.5719,1091.06423 409.584907,1103.4196 406.500556,1108.09473 C403.072519,1113.29861 392.466755,1123.04543 383.218106,1112.8756 C369.153463,1097.40936 397.110908,1095.71291 395.485014,1081.73601 C393.85912,1067.7591 413.070225,876.550432 397.450186,861.097401 C381.834554,845.639965 347.518939,819.404623 342.954098,838.074281 C338.389257,856.743939 333.348546,1083.61311 333.352952,1085.16855 C333.361764,1086.72398 313.124011,1115.45772 303.945861,1107.07246 C283.650827,1088.53058 311.652334,1094.60252 311.577429,1080.6212 C311.506929,1066.63989 291.136989,732.69228 291.136989,732.69228 C291.136989,732.69228 269.326217,420.503171 266.065616,391.002732 C263.329356,366.217076 242.65098,264.769936 236.107749,232.956169 C234.979757,227.470277 230.058013,223.605918 224.457712,223.826235 C182.162437,225.487425 15.056668,228.23698 3.90012727,168.619215 C3.90012727,168.619215 -2.40076265,151.562278 14.6733272,148.363276 C31.747417,145.16868 157.624216,150.733886 182.417998,138.17582 C207.211779,125.617754 290.731617,52.159679 314.093378,62.9155522 C337.45514,73.6714254 386.535988,100.607375 372.986871,184.578975 C359.777033,266.448751 375.877349,590.398379 376.692499,606.547611 C376.710124,606.930962 376.714531,607.309908 376.692499,607.693259 C376.304752,615.545355 373.625773,709.735255 468.914615,709.241745 C568.354115,708.726203 800.561736,695.872913 800.561736,695.872913 Z" id="Path" fill="#E26B47"></path>
            <path d="M288.625446,173.964104 C294.424027,156.607536 304.893198,140.074952 323.566744,135.166291 C327.770275,134.0603 332.035493,133.619666 336.37121,133.624072 C336.556271,133.624072 336.69727,133.637291 336.829457,133.65051 C336.9308,133.637291 337.032143,133.619666 337.120267,133.615259 C348.342901,133.112937 357.023148,144.913112 361.821518,153.46141 C371.052542,169.90146 375.123886,189.192412 377.96149,207.637346 C381.460026,230.39168 382.72461,253.454458 383.416386,276.442328 C384.376941,308.472005 385.068717,338.999121 402.909489,366.847182 C415.000148,385.723938 432.523672,399.987257 445.046139,418.414566 C454.431381,432.228439 462.062948,450.320866 456.621271,467.109017 C445.781978,500.553129 399.036424,494.948266 374.225018,484.672684 C361.944892,479.587769 351.480127,473.370425 342.623632,463.456162 C334.873097,454.784487 328.594238,444.834974 323.130529,434.603455 C309.039448,408.213892 299.808424,379.19815 292.934726,350.173596 C285.426532,318.487613 280.777974,285.955613 279.817419,253.388363 C279.041924,226.972361 280.178728,199.247677 288.625446,173.964104 Z" id="Path" fill="#000000"></path>
            <path d="M272.406162,121.083632 C279.420859,120.744344 280.284478,133.870827 280.297696,138.334448 C280.315321,143.163796 279.649982,155.541202 272.670535,155.88049 C265.611776,156.224184 264.871531,143.044825 264.779001,138.629673 C264.831875,133.800326 265.382653,121.42292 272.406162,121.083632 Z" id="Path" fill="#000000"></path>
            <path d="M1.48992672,155.96421 C8.01112747,145.159867 28.7908455,145.882507 39.1542673,145.798786 C55.4043946,142.855352 75.2191512,140.740309 90.830377,147.028155 C98.3870387,150.072935 101.744576,154.637902 103.515875,162.313745 C105.692546,171.721278 107.829561,180.943745 107.732624,190.690567 C107.631281,200.701769 105.203456,212.202313 95.3687802,217.009629 C85.4239491,221.874227 72.0466751,219.36702 61.8418772,216.824563 C39.555233,211.272576 5.75514451,196.383557 0.727651228,170.901699 C-0.0125931816,167.125467 -0.726400291,159.643503 1.48992672,155.96421 Z" id="Path" fill="#000000"></path>
            <path d="M236.927305,519.218381 C249.344024,516.565765 261.756336,513.913149 274.173055,511.256126 C274.582833,511.168 276.5436,511.467631 277.592279,511.97436 C308.872012,511.811325 340.151744,511.652697 371.431477,511.489662 C372.696061,511.48085 377.551712,513.0451 376.33119,515.217425 C369.312086,527.727021 358.085046,539.430257 344.95452,545.392034 C317.098418,558.03382 291.374925,538.447644 274.366928,517.420594 C269.965118,522.677357 265.563307,527.938525 261.157091,533.195288 C260.681219,533.763705 258.623516,533.256976 257.530774,532.604838 C257.44265,532.569588 257.367744,532.534337 257.310464,532.503492 C250.555733,528.396785 243.801003,524.28567 237.050679,520.178963 C236.65412,519.932208 236.213498,519.368196 236.927305,519.218381 Z" id="Path" fill="#EEC130"></path>
        </g>
    </g>
</svg>